<?xml version="1.0" encoding="UTF-8"?>
<svg xmlns="http://www.w3.org/2000/svg" xmlns:xlink="http://www.w3.org/1999/xlink" width="24px" height="24px" viewBox="0 0 24 24" version="1.1">
<g id="surface1">
<path style="fill-rule:nonzero;fill:rgb(5.882353%,5.882353%,5.882353%);fill-opacity:1;stroke-width:0.00024;stroke-linecap:butt;stroke-linejoin:miter;stroke:rgb(0%,0%,0%);stroke-opacity:1;stroke-miterlimit:4;" d="M 1 12.000003 C 1 11.445315 1.449219 11.000003 2.000001 11.000003 L 22.000006 11.000003 C 22.550787 11.000003 23.000006 11.445315 23.000006 12.000003 C 23.000006 12.554691 22.550787 13.000003 22.000006 13.000003 L 2.000001 13.000003 C 1.449219 13.000003 1 12.554691 1 12.000003 Z M 1 12.000003 " transform="matrix(1,0,0,1,0,0)"/>
<path style="fill-rule:nonzero;fill:rgb(5.882353%,5.882353%,5.882353%);fill-opacity:1;stroke-width:0.00024;stroke-linecap:butt;stroke-linejoin:miter;stroke:rgb(0%,0%,0%);stroke-opacity:1;stroke-miterlimit:4;" d="M 1 4.000001 C 1 3.44922 1.449219 3.000001 2.000001 3.000001 L 22.000006 3.000001 C 22.550787 3.000001 23.000006 3.44922 23.000006 4.000001 C 23.000006 4.550782 22.550787 5.000001 22.000006 5.000001 L 2.000001 5.000001 C 1.449219 5.000001 1 4.550782 1 4.000001 Z M 1 4.000001 " transform="matrix(1,0,0,1,0,0)"/>
<path style="fill-rule:nonzero;fill:rgb(5.882353%,5.882353%,5.882353%);fill-opacity:1;stroke-width:0.00024;stroke-linecap:butt;stroke-linejoin:miter;stroke:rgb(0%,0%,0%);stroke-opacity:1;stroke-miterlimit:4;" d="M 1 20.000005 C 1 19.445317 1.449219 19.000005 2.000001 19.000005 L 22.000006 19.000005 C 22.550787 19.000005 23.000006 19.445317 23.000006 20.000005 C 23.000006 20.550786 22.550787 21.000005 22.000006 21.000005 L 2.000001 21.000005 C 1.449219 21.000005 1 20.550786 1 20.000005 Z M 1 20.000005 " transform="matrix(1,0,0,1,0,0)"/>
</g>
</svg>
